<svg xmlns="http://www.w3.org/2000/svg" viewBox="0 0 64 64">
  <defs>
    <linearGradient id="bgB" x1="0" y1="0" x2="0" y2="1">
      <stop offset="0" stop-color="#cf5a3c"/>
      <stop offset="1" stop-color="#b84a2f"/>
    </linearGradient>
    <filter id="s" x="-20%" y="-20%" width="140%" height="140%">
      <feDropShadow dx="0" dy="2" stdDeviation="2" flood-opacity=".22"/>
    </filter>
  </defs>
  <g filter="url(#s)">
    <circle cx="32" cy="32" r="28" fill="url(#bgB)"/>
    <!-- fusée blanche -->
    <path d="M33 17c6 3 8 11 5 17l-9-9c3-4 4-6 4-8z" fill="#fff"/>
    <path d="M29 26l9 9c-2 4-7 6-11 5l2-6-6 2c-1-4 1-9 6-10z" fill="#fff"/>
    <!-- hublot -->
    <circle cx="36" cy="24" r="3" fill="#cf5a3c"/>
    <!-- flammes -->
    <path d="M22 40c1 4 6 6 9 6-2-3-1-6 1-8-4 0-7 1-10 2z" fill="#ffd38a"/>
  </g>
</svg>
