<svg xmlns="http://www.w3.org/2000/svg" width="64" height="64" viewBox="0 0 64 64">
  <defs>
    <filter id="shadow" x="-20%" y="-20%" width="140%" height="140%">
      <feDropShadow dx="0" dy="1.5" stdDeviation="1.5" flood-opacity="0.18"/>
    </filter>
  </defs>
  <!-- fond -->
  <circle cx="32" cy="32" r="28" fill="#E88A64"/>
  <!-- dossier -->
  <g filter="url(#shadow)">
    <path d="M18 24a3 3 0 0 1 3-3h8l3 3h11a3 3 0 0 1 3 3v14a4 4 0 0 1-4 4H22a4 4 0 0 1-4-4V24z" fill="#2D6CDF"/>
    <rect x="18" y="28" width="28" height="2.5" rx="1.25" fill="#FFFFFF" opacity="0.9"/>
    <rect x="22" y="33" width="20" height="2.5" rx="1.25" fill="#FFFFFF" opacity="0.9"/>
    <rect x="22" y="38" width="14" height="2.5" rx="1.25" fill="#FFFFFF" opacity="0.9"/>
  </g>
</svg>
